# xmcd
#
# Track frame offsets: 
#        150
#        17000
#        41528
#        63673
#        89305
#        121363
#        156180
#        181993
#        205308
#        233983
#        271040
#        294270
#
# Disc length: 4485 seconds
#
# Revision: 1
# Processed by: cddbd v1.5.2PL0 Copyright (c) Steve Scherf et al.
# Submitted via: ExactAudioCopyFreeDBPlugin 1.0
#
DISCID=a111830c
DTITLE=Various Artist - Historien om Radio Nord
DYEAR=1992
DGENRE=Jazz
TTITLE0=Radio Nords Premiärsändning
TTITLE1=Radio Nord Valsen (kärleken i Rymden) - Evert Taube
TTITLE2=Putti Putti - Jay Epae
TTITLE3=I've Told Every Little Star - Linda Scott
TTITLE4=Sol och Vår - Inger Berggren
TTITLE5=Song From Israel (Hava Nagila) - The Climbers
TTITLE6=Dance With a Dolly - Damita Jo
TTITLE7=Rawhide - Frankie Laine
TTITLE8=Klang Min Vackra Bjällra - Lil Malmkvist
TTITLE9=Alptoppens Ros - Owe Törnqvist
TTITLE10=Imagination - The Quaotations
TTITLE11=Are You Sure - The Allisons
EXTD=YEAR: 1992
EXTT0=
EXTT1=
EXTT2=
EXTT3=
EXTT4=
EXTT5=
EXTT6=
EXTT7=
EXTT8=
EXTT9=
EXTT10=
EXTT11=
PLAYORDER=
